PathFileType	4	(X/Y/Z)	S1_rest_med_right.trc
DataRate	CameraRate	NumFrames	NumMarkers	Units	OrigDataRate	OrigDataStartFrame	OrigNumFrames
250.00	250.00	17	18	mm	250.00	18483	24643
Frame#	Time	c7	r_should	l_should	clavicle	r_upa	r_elb_l	r_elb_m	r_low	r_wri_l	r_wri_m	r_met	l_upa	l_elb_l	l_elb_m	l_low	l_wri_l	l_wri_m	l_met
	X1	Y1	Z1	X2	Y2	Z2	X3	Y3	Z3	X4	Y4	Z4	X5	Y5	Z5	X6	Y6	Z6	X7	Y7	Z7	X8	Y8	Z8	X9	Y9	Z9	X10	Y10	Z10	X11	Y11	Z11	X12	Y12	Z12	X13	Y13	Z13	X14	Y14	Z14	X15	Y15	Z15	X16	Y16	Z16	X17	Y17	Z17	X18	Y18	Z18
18483	73.92800	357.71774	1405.67627	57.73783	407.84766	1365.76843	226.07520	425.50415	1356.86780	-133.51291	520.54376	1319.70398	50.98109	498.65906	1184.85571	284.55270	529.13812	1143.78101	293.91266	571.84222	1097.04944	198.95271	621.78851	1207.04407	263.08481	589.83936	1307.78503	281.44464	623.89844	1302.29456	214.00713	626.98566	1372.21924	309.80530	443.01215	1141.18750	-185.99860	460.06268	1060.35669	-198.21519	392.96716	1024.79456	-129.67311	460.49872	913.65002	-203.49597	552.15118	853.66382	-149.00652	504.09067	819.30927	-195.44930	599.97797	786.43164	-163.55824
18484	73.93200	357.65225	1405.68384	57.75841	407.81189	1365.77991	226.07648	425.38306	1356.85266	-133.50946	520.47375	1319.70178	50.96640	498.63528	1184.88782	284.57828	529.10474	1143.80969	293.93185	571.78558	1096.94482	199.08684	621.74927	1207.04968	263.04974	589.84790	1307.79883	281.38309	623.84937	1302.28235	213.92322	627.04590	1372.20618	309.70190	442.82965	1141.16541	-185.98674	459.71573	1060.44861	-198.45062	392.76462	1024.78906	-129.62758	460.19858	913.60571	-203.48152	551.85297	853.57104	-149.04234	503.74960	819.24146	-195.47566	599.62726	786.31030	-163.64021
18485	73.93600	357.58917	1405.68994	57.76111	407.77783	1365.79407	226.07693	425.26947	1356.83447	-133.50575	520.40680	1319.70032	50.95401	498.61063	1184.91650	284.59799	529.07306	1143.83716	293.94653	571.71069	1096.89368	199.12790	621.71637	1207.05347	263.01187	589.86200	1307.81079	281.31903	623.80792	1302.26465	213.84389	627.10736	1372.18738	309.59131	442.64960	1141.14380	-185.97385	459.68451	1060.24438	-198.13190	392.55930	1024.78809	-129.59047	459.89398	913.55560	-203.47606	551.56567	853.47333	-149.08244	503.40677	819.17487	-195.49907	599.27313	786.18811	-163.71155
18486	73.94000	357.52985	1405.69543	57.76862	407.73590	1365.80969	226.07768	425.15741	1356.81616	-133.50215	520.33710	1319.69910	50.94865	498.58685	1184.95056	284.61200	529.04468	1143.86414	293.95465	571.63843	1096.87244	199.11739	621.68365	1207.05164	262.97321	589.87543	1307.82239	281.24240	623.76196	1302.24463	213.76154	627.17535	1372.16577	309.48663	442.47638	1141.11743	-185.95586	459.41772	1060.27014	-198.22505	392.34988	1024.78577	-129.54712	459.59274	913.50726	-203.46600	551.28162	853.37732	-149.11884	503.06714	819.10535	-195.52472	598.91577	786.05780	-163.77893
18487	73.94400	357.46790	1405.70044	57.77308	407.68301	1365.82031	226.07695	425.04602	1356.80127	-133.50366	520.26880	1319.69348	50.93650	498.55298	1184.96973	284.62509	529.01276	1143.88013	293.96350	571.56354	1096.86096	199.12308	621.64435	1207.04590	262.92310	589.88086	1307.82764	281.16641	623.72107	1302.22363	213.67281	627.23785	1372.14331	309.38315	442.31277	1141.08496	-185.93163	459.10364	1060.34717	-198.39850	392.16956	1024.77417	-129.49763	459.29916	913.46460	-203.46048	550.99573	853.27698	-149.15720	502.72327	819.03229	-195.54463	598.55499	785.92279	-163.83723
18488	73.94800	357.40546	1405.70374	57.77987	407.63144	1365.82690	226.07535	424.94403	1356.78503	-133.50270	520.19861	1319.68921	50.91898	498.51950	1184.98901	284.63412	528.98401	1143.89246	293.96881	571.48059	1096.84180	199.13326	621.61652	1207.03931	262.86133	589.89252	1307.82983	281.09308	623.68530	1302.20435	213.57860	627.30627	1372.12634	309.27399	442.15698	1141.05701	-185.90990	459.08511	1060.13635	-198.04749	391.98822	1024.76904	-129.45932	459.18204	913.35272	-203.60478	550.70166	853.17920	-149.19421	502.37192	818.95984	-195.55843	598.19678	785.77252	-163.89217
18489	73.95200	357.34436	1405.71472	57.78857	407.58331	1365.83667	226.07339	424.84906	1356.77454	-133.49466	520.13025	1319.68250	50.90728	498.48749	1185.00342	284.63388	528.95215	1143.90894	293.96585	571.39178	1096.82263	199.11620	621.59296	1207.02661	262.79346	589.91119	1307.83179	281.01682	623.64899	1302.17944	213.48683	627.37744	1372.10522	309.16791	441.99850	1141.03540	-185.89343	458.92844	1060.05664	-197.95615	391.79694	1024.77515	-129.42131	459.10370	913.22632	-203.77699	550.40698	853.07825	-149.22884	502.02161	818.88885	-195.58412	597.83698	785.62115	-163.96594
18490	73.95600	357.28799	1405.72400	57.80042	407.52960	1365.84741	226.07481	424.75479	1356.76208	-133.49678	520.06415	1319.67834	50.89886	498.44254	1185.01221	284.63632	528.92224	1143.91943	293.95871	571.30823	1097.01904	198.86768	621.57050	1207.01501	262.72208	589.92383	1307.83398	280.93961	623.61694	1302.15125	213.39499	627.44513	1372.09082	309.05890	441.84430	1141.01270	-185.86977	458.64645	1060.10303	-198.09201	391.62167	1024.77527	-129.37067	458.54221	913.29218	-203.50128	550.10974	852.97583	-149.26231	501.66983	818.81293	-195.59729	597.48456	785.47980	-164.04227
18491	73.96000	357.23859	1405.73572	57.81802	407.48532	1365.85364	226.07544	424.66101	1356.75195	-133.49799	520.00055	1319.67126	50.88440	498.40576	1185.01404	284.63022	528.89001	1143.92859	293.95013	571.20410	1097.26917	198.57384	621.55096	1207.00024	262.64584	589.93829	1307.83472	280.85913	623.58533	1302.12280	213.29257	627.51752	1372.06580	308.94791	441.70041	1140.98462	-185.83301	458.22891	1060.29126	-198.48624	391.43350	1024.77808	-129.32248	458.19617	913.28009	-203.42073	549.81683	852.86920	-149.29335	501.32144	818.74036	-195.60655	597.13678	785.33282	-164.09984
18492	73.96400	357.18277	1405.74451	57.81981	407.43881	1365.86145	226.06845	424.57666	1356.74976	-133.49413	519.94049	1319.66345	50.86859	498.36038	1185.01636	284.61795	528.85797	1143.93665	293.93097	571.11041	1096.86829	198.91948	621.53198	1206.98108	262.55359	589.96240	1307.82800	280.77194	623.55542	1302.09436	213.19196	627.59229	1372.02930	308.83978	441.56607	1140.96082	-185.79761	458.09656	1060.21790	-198.37370	391.25009	1024.78735	-129.27246	457.90918	913.25165	-203.38747	549.53375	852.76434	-149.32423	500.97205	818.67560	-195.62384	596.78882	785.19257	-164.15868
18493	73.96800	357.12839	1405.74841	57.81760	407.38614	1365.87354	226.06262	424.50354	1356.74609	-133.49387	519.87958	1319.65552	50.85600	498.31601	1185.01367	284.60300	528.82806	1143.94556	293.91812	571.04883	1096.76709	198.98470	621.50836	1206.95837	262.47513	589.98376	1307.82227	280.68613	623.52563	1302.06128	213.09512	627.66333	1372.00439	308.72379	441.44366	1140.93665	-185.76318	458.14609	1059.99097	-197.94975	391.08005	1024.80676	-129.21631	457.63565	913.21680	-203.36543	549.25739	852.65704	-149.35051	500.63205	818.61377	-195.63754	596.45142	785.05060	-164.20734
18494	73.97200	357.07361	1405.76099	57.81284	407.34369	1365.87805	226.06831	424.43054	1356.74182	-133.49426	519.81921	1319.65881	50.83530	498.27719	1185.01282	284.58453	528.79437	1143.95422	293.90527	570.97113	1096.73633	198.98250	621.47894	1206.93262	262.40524	590.00836	1307.81812	280.60663	623.49329	1302.02319	212.99359	627.73798	1371.98706	308.60535	441.32465	1140.91833	-185.72072	458.03619	1059.91870	-197.82663	390.91040	1024.81616	-129.16768	457.36356	913.17798	-203.34569	548.98755	852.54669	-149.37373	500.30328	818.54950	-195.65881	596.12347	784.91290	-164.26585
18495	73.97600	357.01712	1405.76611	57.81478	407.30411	1365.88171	226.06412	424.35999	1356.74377	-133.50165	519.76428	1319.66211	50.81521	498.23071	1185.00525	284.56042	528.76105	1143.96375	293.88028	570.88617	1096.91675	198.74748	621.45264	1206.90320	262.33029	590.04242	1307.79895	280.52710	623.45978	1301.98206	212.88629	627.81763	1371.95898	308.48767	441.21106	1140.89514	-185.67439	457.89832	1059.88013	-197.77399	390.75143	1024.82483	-129.12460	457.10385	913.14178	-203.32199	548.71521	852.44409	-149.38947	499.96387	818.49542	-195.67262	595.79590	784.76733	-164.31863
18496	73.98000	356.96487	1405.77551	57.82119	407.26346	1365.88892	226.06201	424.29187	1356.75049	-133.50233	519.71118	1319.66382	50.80564	498.17874	1184.99939	284.53653	528.71954	1143.98193	293.85938	570.81244	1097.39465	198.23781	621.42145	1206.87024	262.26352	590.07513	1307.77759	280.44885	623.42749	1301.93420	212.78757	627.89990	1371.92554	308.37408	441.09720	1140.87170	-185.63474	457.75922	1059.84753	-197.71478	390.59805	1024.84619	-129.06680	456.84769	913.10626	-203.29477	548.44147	852.33948	-149.40564	499.62512	818.42535	-195.68266	595.44562	784.61359	-164.37788
18497	73.98400	356.91287	1405.78748	57.82232	407.22607	1365.89478	226.06656	424.22244	1356.75598	-133.49937	519.65869	1319.66431	50.79373	498.13144	1184.99805	284.52161	528.67560	1143.99792	293.84531	570.73914	1097.50391	198.08984	621.38934	1206.83545	262.19745	590.10461	1307.75854	280.37103	623.40314	1301.88147	212.69460	627.98273	1371.88416	308.25681	440.98926	1140.85425	-185.58981	457.51224	1059.91467	-197.86351	390.45831	1024.85278	-129.00893	456.59482	913.07178	-203.26843	548.16260	852.23157	-149.42091	499.29810	818.35236	-195.69807	595.10101	784.46307	-164.42419
18498	73.98800	356.85583	1405.80273	57.81035	407.18820	1365.89917	226.06906	424.15097	1356.75781	-133.50124	519.60101	1319.67004	50.78745	498.08502	1185.00488	284.50076	528.63031	1144.01697	293.83139	570.67542	1097.28870	198.27100	621.35992	1206.79578	262.13052	590.13422	1307.73438	280.28940	623.37567	1301.83289	212.60271	628.05328	1371.84302	308.14072	440.88339	1140.83704	-185.55011	457.24289	1060.00977	-198.06044	390.30408	1024.86658	-128.95149	456.34842	913.03857	-203.23944	547.89215	852.12396	-149.43182	498.97968	818.27960	-195.70401	594.76300	784.31384	-164.46805
18499	73.99200	356.80707	1405.81653	57.81772	407.14825	1365.90710	226.06850	424.08035	1356.76318	-133.50819	519.54565	1319.67773	50.78248	498.03470	1185.01147	284.48141	528.58795	1144.03174	293.82083	570.61084	1096.99158	198.53271	621.33087	1206.75757	262.07098	590.15576	1307.71484	280.21362	623.35370	1301.78125	212.51628	628.12323	1371.79456	308.03043	440.78009	1140.81201	-185.50574	457.28339	1059.80566	-197.68863	390.15616	1024.88208	-128.89711	456.11002	913.00739	-203.21451	547.61884	852.01752	-149.44194	498.65762	818.21252	-195.70084	594.42987	784.17419	-164.52306
